<?xml version="1.0" encoding="UTF-8"?>
<!DOCTYPE svg PUBLIC "-//W3C//DTD SVG 1.1//EN" "http://www.w3.org/Graphics/SVG/1.1/DTD/svg11.dtd">
<!-- Creator: CorelDRAW 2019 (64-Bit) -->
<svg xmlns="http://www.w3.org/2000/svg" xml:space="preserve" width="3.72292in" height="3.72292in" version="1.1" style="shape-rendering:geometricPrecision; text-rendering:geometricPrecision; image-rendering:optimizeQuality; fill-rule:evenodd; clip-rule:evenodd"
viewBox="0 0 986.54 986.54"
 xmlns:xlink="http://www.w3.org/1999/xlink"
 xmlns:xodm="http://www.corel.com/coreldraw/odm/2003">
 <defs>
  <style type="text/css">
   <![CDATA[
    .fil1 {fill:#2E2E2E}
    .fil0 {fill:#FFDF28}
   ]]>
  </style>
 </defs>
 <g id="Layer_x0020_1">
  <metadata id="CorelCorpID_0Corel-Layer"/>
  <g id="_1782612435088">
   <rect class="fil0" width="986.54" height="986.54"/>
   <path class="fil1" d="M295.59 295.61l0 -79.06 -79.06 0 0 553.44 277.53 0c167.8,-0.24 296.96,-149.47 273.11,-316.25 -19.42,-135.75 -136.19,-237.19 -273.92,-237.19 -39.53,0 -79.06,0 -118.59,0l0 395.31c39.53,0 79.06,0 118.59,0 82.25,0 138.91,-81.56 111.85,-158.13 -11.91,-33.7 -38.62,-60.41 -72.31,-72.32l0 111.85c0,21.83 -17.7,39.53 -39.53,39.53l-39.53 0 0 -237.19c26.49,0 53.15,-1.31 79.06,3.95 141.77,28.78 205.57,196.53 118.61,312.3 -37.26,49.61 -95.44,79.06 -158.14,79.06 -65.89,0 -131.77,0 -197.66,0l0 -395.31z"/>
  </g>
 </g>
</svg>
